Format                                   : MPEG-4
Format profile                           : Base Media / Version 2
Codec ID                                 : mp42
File size                                : 64.5 MiB
Duration                                 : 3mn 28s
Overall bit rate mode                    : Variable
Overall bit rate                         : 2 591 Kbps
Encoded date                             : UTC 2012-05-16 12:11:50
Tagged date                              : UTC 2012-05-16 12:11:50
gsst                                     : 0
gstd                                     : 209048
gssd                                     : BCA9FD843HH1337704043491136
gshh                                     :

Video
ID                                       : 1
Format                                   : AVC
Format/Info                              : Advanced Video Codec
Format profile                           : High@L3.1
Format settings, CABAC                   : Yes
Format settings, ReFrames                : 1 frame
Codec ID                                 : avc1
Codec ID/Info                            : Advanced Video Coding
Duration                                 : 3mn 28s
Bit rate                                 : 2 438 Kbps
Maximum bit rate                         : 5 793 Kbps
Width                                    : 1 280 pixels
Height                                   : 720 pixels
Display aspect ratio                     : 16:9
Frame rate mode                          : Constant
Frame rate                               : 25.000 fps
Color space                              : YUV
Chroma subsampling                       : 4:2:0
Bit depth                                : 8 bits
Scan type                                : Progressive
Bits/(Pixel*Frame)                       : 0.106
Stream size                              : 60.7 MiB (94%)
Tagged date                              : UTC 2012-05-16 12:11:50

Audio
ID                                       : 2
Format                                   : AAC
Format/Info                              : Advanced Audio Codec
Format profile                           : LC
Codec ID                                 : 40
Duration                                 : 3mn 28s
Bit rate mode                            : Variable
Bit rate                                 : 151 Kbps
Maximum bit rate                         : 237 Kbps
Channel(s)                               : 2 channels
Channel positions                        : Front: L R
Sampling rate                            : 44.1 KHz
Compression mode                         : Lossy
Stream size                              : 3.75 MiB (6%)
Title                                    : IsoMedia File Produced by Google, 5-11-2011
Encoded date                             : UTC 2012-05-16 12:11:50
Tagged date                              : UTC 2012-05-16 12:11:50


SEED SEED SEED & ONCE AGAIN SEED TO KEEP THE TORRENT ALIVE
